<mxfile host="app.diagrams.net" modified="2024-06-20T16:09:22.929Z" agent="Mozilla/5.0 (X11; Ubuntu; Linux x86_64; rv:123.0) Gecko/20100101 Firefox/123.0" etag="IuKht4VskoE8TakOccN7" version="24.5.5" type="device">
  <diagram name="PÃ¡gina-1" id="pnkKG1xDQ4r84PMHm7d6">
    <mxGraphModel dx="1364" dy="795" grid="1" gridSize="10" guides="1" tooltips="1" connect="1" arrows="1" fold="1" page="1" pageScale="1" pageWidth="827" pageHeight="1169" math="0" shadow="0">
      <root>
        <mxCell id="0" />
        <mxCell id="1" parent="0" />
        <mxCell id="k2xtMvNpg32Ia1_yo8kl-1" value="" style="verticalLabelPosition=bottom;shadow=0;dashed=0;align=center;html=1;verticalAlign=top;shape=mxgraph.electrical.logic_gates.jk_flip-flop_with_sr;" parent="1" vertex="1">
          <mxGeometry x="364" y="110" width="100" height="100" as="geometry" />
        </mxCell>
        <mxCell id="k2xtMvNpg32Ia1_yo8kl-2" value="" style="verticalLabelPosition=bottom;shadow=0;dashed=0;align=center;html=1;verticalAlign=top;shape=mxgraph.electrical.logic_gates.inverting_contact;" parent="1" vertex="1">
          <mxGeometry x="190" y="155" width="10" height="10" as="geometry" />
        </mxCell>
        <mxCell id="k2xtMvNpg32Ia1_yo8kl-3" value="Clk" style="text;strokeColor=none;align=center;fillColor=none;html=1;verticalAlign=middle;whiteSpace=wrap;rounded=0;fontSize=10;" parent="1" vertex="1">
          <mxGeometry x="140" y="145" width="60" height="30" as="geometry" />
        </mxCell>
        <mxCell id="k2xtMvNpg32Ia1_yo8kl-9" value="1" style="text;strokeColor=none;align=center;fillColor=none;html=1;verticalAlign=middle;whiteSpace=wrap;rounded=0;fontSize=10;" parent="1" vertex="1">
          <mxGeometry x="320" y="165" width="60" height="30" as="geometry" />
        </mxCell>
        <mxCell id="k2xtMvNpg32Ia1_yo8kl-10" value="1" style="text;strokeColor=none;align=center;fillColor=none;html=1;verticalAlign=middle;whiteSpace=wrap;rounded=0;fontSize=10;" parent="1" vertex="1">
          <mxGeometry x="320" y="125" width="60" height="30" as="geometry" />
        </mxCell>
        <mxCell id="QnQLokl2paKiinl1mr7T-19" value="FF0" style="text;strokeColor=none;align=center;fillColor=none;html=1;verticalAlign=middle;whiteSpace=wrap;rounded=0;" parent="1" vertex="1">
          <mxGeometry x="384" y="145" width="60" height="30" as="geometry" />
        </mxCell>
        <mxCell id="QnQLokl2paKiinl1mr7T-64" style="edgeStyle=orthogonalEdgeStyle;rounded=0;orthogonalLoop=1;jettySize=auto;html=1;exitX=0;exitY=0;exitDx=0;exitDy=0;endArrow=none;endFill=0;" parent="1" edge="1">
          <mxGeometry relative="1" as="geometry">
            <mxPoint x="767.5" y="105" as="targetPoint" />
            <mxPoint x="607.5" y="105" as="sourcePoint" />
            <Array as="points">
              <mxPoint x="722.5" y="105" />
            </Array>
          </mxGeometry>
        </mxCell>
        <mxCell id="QnQLokl2paKiinl1mr7T-65" style="edgeStyle=orthogonalEdgeStyle;rounded=0;orthogonalLoop=1;jettySize=auto;html=1;exitX=0.25;exitY=0;exitDx=0;exitDy=0;endArrow=none;endFill=0;" parent="1" source="QnQLokl2paKiinl1mr7T-62" edge="1">
          <mxGeometry relative="1" as="geometry">
            <mxPoint x="767.5" y="142" as="targetPoint" />
          </mxGeometry>
        </mxCell>
        <mxCell id="QnQLokl2paKiinl1mr7T-66" style="edgeStyle=orthogonalEdgeStyle;rounded=0;orthogonalLoop=1;jettySize=auto;html=1;exitX=0.5;exitY=0;exitDx=0;exitDy=0;endArrow=none;endFill=0;" parent="1" source="QnQLokl2paKiinl1mr7T-62" edge="1">
          <mxGeometry relative="1" as="geometry">
            <mxPoint x="767.5" y="185" as="targetPoint" />
          </mxGeometry>
        </mxCell>
        <mxCell id="QnQLokl2paKiinl1mr7T-67" style="edgeStyle=orthogonalEdgeStyle;rounded=0;orthogonalLoop=1;jettySize=auto;html=1;exitX=0.75;exitY=0;exitDx=0;exitDy=0;endArrow=none;endFill=0;" parent="1" source="QnQLokl2paKiinl1mr7T-62" edge="1">
          <mxGeometry relative="1" as="geometry">
            <mxPoint x="767.5" y="228" as="targetPoint" />
          </mxGeometry>
        </mxCell>
        <mxCell id="QnQLokl2paKiinl1mr7T-68" style="edgeStyle=orthogonalEdgeStyle;rounded=0;orthogonalLoop=1;jettySize=auto;html=1;exitX=1;exitY=0;exitDx=0;exitDy=0;endArrow=none;endFill=0;" parent="1" edge="1">
          <mxGeometry relative="1" as="geometry">
            <mxPoint x="767.5" y="263" as="targetPoint" />
            <mxPoint x="625" y="267.5" as="sourcePoint" />
            <Array as="points">
              <mxPoint x="625" y="262.5" />
            </Array>
          </mxGeometry>
        </mxCell>
        <mxCell id="nmVDLG2SwFyJyHrFb4c8-9" style="edgeStyle=orthogonalEdgeStyle;rounded=0;orthogonalLoop=1;jettySize=auto;html=1;exitX=0.25;exitY=1;exitDx=0;exitDy=0;endArrow=none;endFill=0;" edge="1" parent="1" source="QnQLokl2paKiinl1mr7T-62">
          <mxGeometry relative="1" as="geometry">
            <mxPoint x="529.9999999999999" y="142.5625" as="targetPoint" />
          </mxGeometry>
        </mxCell>
        <mxCell id="nmVDLG2SwFyJyHrFb4c8-10" style="edgeStyle=orthogonalEdgeStyle;rounded=0;orthogonalLoop=1;jettySize=auto;html=1;exitX=0.5;exitY=1;exitDx=0;exitDy=0;endArrow=none;endFill=0;" edge="1" parent="1" source="QnQLokl2paKiinl1mr7T-62">
          <mxGeometry relative="1" as="geometry">
            <mxPoint x="529.9999999999999" y="185.0625" as="targetPoint" />
          </mxGeometry>
        </mxCell>
        <mxCell id="nmVDLG2SwFyJyHrFb4c8-11" style="edgeStyle=orthogonalEdgeStyle;rounded=0;orthogonalLoop=1;jettySize=auto;html=1;exitX=0.75;exitY=1;exitDx=0;exitDy=0;endArrow=none;endFill=0;" edge="1" parent="1" source="QnQLokl2paKiinl1mr7T-62">
          <mxGeometry relative="1" as="geometry">
            <mxPoint x="529.9999999999999" y="227.5625" as="targetPoint" />
          </mxGeometry>
        </mxCell>
        <mxCell id="QnQLokl2paKiinl1mr7T-62" value="" style="rounded=0;whiteSpace=wrap;html=1;rotation=90;" parent="1" vertex="1">
          <mxGeometry x="510" y="137.5" width="170" height="95" as="geometry" />
        </mxCell>
        <mxCell id="QnQLokl2paKiinl1mr7T-63" value="&lt;div&gt;DECODE&lt;/div&gt;&lt;div&gt;CONTADOR&lt;br&gt;&lt;/div&gt;" style="text;strokeColor=none;align=center;fillColor=none;html=1;verticalAlign=middle;whiteSpace=wrap;rounded=0;fontSize=10;" parent="1" vertex="1">
          <mxGeometry x="565" y="160" width="60" height="30" as="geometry" />
        </mxCell>
        <mxCell id="QnQLokl2paKiinl1mr7T-69" value="" style="edgeStyle=none;orthogonalLoop=1;jettySize=auto;html=1;rounded=0;endArrow=none;endFill=0;" parent="1" edge="1">
          <mxGeometry width="80" relative="1" as="geometry">
            <mxPoint x="643.5" y="124.74000000000001" as="sourcePoint" />
            <mxPoint x="767.5" y="125" as="targetPoint" />
            <Array as="points" />
          </mxGeometry>
        </mxCell>
        <mxCell id="QnQLokl2paKiinl1mr7T-70" value="" style="edgeStyle=none;orthogonalLoop=1;jettySize=auto;html=1;rounded=0;endArrow=none;endFill=0;" parent="1" edge="1">
          <mxGeometry width="80" relative="1" as="geometry">
            <mxPoint x="642.5" y="164.74" as="sourcePoint" />
            <mxPoint x="767.5" y="165" as="targetPoint" />
            <Array as="points" />
          </mxGeometry>
        </mxCell>
        <mxCell id="QnQLokl2paKiinl1mr7T-71" value="Cont1_SegA" style="text;strokeColor=none;align=center;fillColor=none;html=1;verticalAlign=middle;whiteSpace=wrap;rounded=0;fontSize=10;" parent="1" vertex="1">
          <mxGeometry x="707.5" y="80" width="60" height="30" as="geometry" />
        </mxCell>
        <mxCell id="QnQLokl2paKiinl1mr7T-72" value="Cont1_SegB" style="text;strokeColor=none;align=center;fillColor=none;html=1;verticalAlign=middle;whiteSpace=wrap;rounded=0;fontSize=10;" parent="1" vertex="1">
          <mxGeometry x="707.5" y="100" width="60" height="30" as="geometry" />
        </mxCell>
        <mxCell id="QnQLokl2paKiinl1mr7T-73" value="Cont1_SegC" style="text;strokeColor=none;align=center;fillColor=none;html=1;verticalAlign=middle;whiteSpace=wrap;rounded=0;fontSize=10;" parent="1" vertex="1">
          <mxGeometry x="707.5" y="120" width="60" height="30" as="geometry" />
        </mxCell>
        <mxCell id="QnQLokl2paKiinl1mr7T-74" value="Cont1_SegD" style="text;strokeColor=none;align=center;fillColor=none;html=1;verticalAlign=middle;whiteSpace=wrap;rounded=0;fontSize=10;" parent="1" vertex="1">
          <mxGeometry x="707.5" y="140" width="60" height="30" as="geometry" />
        </mxCell>
        <mxCell id="QnQLokl2paKiinl1mr7T-75" value="Cont1_SegE" style="text;strokeColor=none;align=center;fillColor=none;html=1;verticalAlign=middle;whiteSpace=wrap;rounded=0;fontSize=10;" parent="1" vertex="1">
          <mxGeometry x="712.5" y="162.5" width="50" height="25" as="geometry" />
        </mxCell>
        <mxCell id="QnQLokl2paKiinl1mr7T-76" value="Cont1_SegF" style="text;strokeColor=none;align=center;fillColor=none;html=1;verticalAlign=middle;whiteSpace=wrap;rounded=0;fontSize=10;" parent="1" vertex="1">
          <mxGeometry x="707.5" y="205" width="60" height="30" as="geometry" />
        </mxCell>
        <mxCell id="QnQLokl2paKiinl1mr7T-77" value="Cont1_SegG" style="text;strokeColor=none;align=center;fillColor=none;html=1;verticalAlign=middle;whiteSpace=wrap;rounded=0;fontSize=10;" parent="1" vertex="1">
          <mxGeometry x="707.5" y="235" width="60" height="30" as="geometry" />
        </mxCell>
        <mxCell id="nmVDLG2SwFyJyHrFb4c8-5" style="edgeStyle=orthogonalEdgeStyle;rounded=0;orthogonalLoop=1;jettySize=auto;html=1;exitX=1;exitY=0.3;exitDx=0;exitDy=0;exitPerimeter=0;entryX=0.114;entryY=0.984;entryDx=0;entryDy=0;entryPerimeter=0;endArrow=none;endFill=0;" edge="1" parent="1" source="k2xtMvNpg32Ia1_yo8kl-1" target="QnQLokl2paKiinl1mr7T-62">
          <mxGeometry relative="1" as="geometry" />
        </mxCell>
        <mxCell id="nmVDLG2SwFyJyHrFb4c8-6" value="" style="verticalLabelPosition=bottom;shadow=0;dashed=0;align=center;html=1;verticalAlign=top;shape=mxgraph.electrical.logic_gates.inverting_contact;" vertex="1" parent="1">
          <mxGeometry x="190" y="110" width="10" height="10" as="geometry" />
        </mxCell>
        <mxCell id="nmVDLG2SwFyJyHrFb4c8-7" value="Rst" style="text;strokeColor=none;align=center;fillColor=none;html=1;verticalAlign=middle;whiteSpace=wrap;rounded=0;fontSize=10;" vertex="1" parent="1">
          <mxGeometry x="140" y="100" width="60" height="30" as="geometry" />
        </mxCell>
        <mxCell id="nmVDLG2SwFyJyHrFb4c8-8" style="edgeStyle=orthogonalEdgeStyle;rounded=0;orthogonalLoop=1;jettySize=auto;html=1;exitX=0.9;exitY=0.5;exitDx=0;exitDy=0;exitPerimeter=0;entryX=0.5;entryY=0;entryDx=0;entryDy=0;entryPerimeter=0;endArrow=none;endFill=0;" edge="1" parent="1" source="nmVDLG2SwFyJyHrFb4c8-6" target="k2xtMvNpg32Ia1_yo8kl-1">
          <mxGeometry relative="1" as="geometry">
            <Array as="points">
              <mxPoint x="257" y="115" />
              <mxPoint x="257" y="110" />
            </Array>
          </mxGeometry>
        </mxCell>
        <mxCell id="nmVDLG2SwFyJyHrFb4c8-12" value="0" style="text;strokeColor=none;align=center;fillColor=none;html=1;verticalAlign=middle;whiteSpace=wrap;rounded=0;fontSize=10;" vertex="1" parent="1">
          <mxGeometry x="490" y="130" width="60" height="30" as="geometry" />
        </mxCell>
        <mxCell id="nmVDLG2SwFyJyHrFb4c8-13" value="0" style="text;strokeColor=none;align=center;fillColor=none;html=1;verticalAlign=middle;whiteSpace=wrap;rounded=0;fontSize=10;" vertex="1" parent="1">
          <mxGeometry x="490" y="170" width="60" height="30" as="geometry" />
        </mxCell>
        <mxCell id="nmVDLG2SwFyJyHrFb4c8-14" value="0" style="text;strokeColor=none;align=center;fillColor=none;html=1;verticalAlign=middle;whiteSpace=wrap;rounded=0;fontSize=10;" vertex="1" parent="1">
          <mxGeometry x="490" y="210" width="60" height="30" as="geometry" />
        </mxCell>
        <mxCell id="nmVDLG2SwFyJyHrFb4c8-17" style="edgeStyle=orthogonalEdgeStyle;rounded=0;orthogonalLoop=1;jettySize=auto;html=1;exitX=0;exitY=0.5;exitDx=0;exitDy=0;exitPerimeter=0;entryX=0.9;entryY=0.5;entryDx=0;entryDy=0;entryPerimeter=0;endArrow=none;endFill=0;" edge="1" parent="1" source="k2xtMvNpg32Ia1_yo8kl-1" target="k2xtMvNpg32Ia1_yo8kl-2">
          <mxGeometry relative="1" as="geometry" />
        </mxCell>
      </root>
    </mxGraphModel>
  </diagram>
</mxfile>
